# xmcd CD database file
#
# Track frame offsets:
#	150
#	14823
#	32313
#	49040
#	64183
#	81703
#	101395
#	119258
#	132883
#	145310
#	159043
#	195338
#	219220
#	233923
#	251450
#	268165
#	285678
#	303623
#	317298
#	329738
#
# Disc length: 4577 seconds
#
# Revision: 3
# Processed by: cddbd v1.5.2PL0 Copyright (c) Steve Scherf et al.
# Submitted via: CDex 1.70beta2
#
DISCID=1b11df14
DTITLE=宮内タカユキ - 仮面ライダーBLACK RX
DYEAR=1988
DGENRE=特撮
TTITLE0=仮面ライダーBLACK RX
TTITLE1=誰かが君を愛してる
TTITLE2=運命の戦士
TTITLE3=戦場のライダーRX
TTITLE4=黒い勇者
TTITLE5=すべては君を愛するために
TTITLE6=光の戦士
TTITLE7=激進RX
TTITLE8=バトル oh!RX
TTITLE9=永遠のために君のために
TTITLE10=11ライダー大讃歌
TTITLE11=仮面ライダー99のうた
TTITLE12=仮面ライダーBLACK RX(カラオケ)
TTITLE13=誰かが君を愛してる(カラオケ)
TTITLE14=運命の戦士(カラオケ)
TTITLE15=黒い勇者(カラオケ)
TTITLE16=光の戦士(カラオケ)
TTITLE17=激進RX(カラオケ)
TTITLE18=バトル oh!RX(カラオケ)
TTITLE19=永遠のために君のために(カラオケ)
EXTD=YEAR: 1988
EXTT0=
EXTT1=
EXTT2=
EXTT3=
EXTT4=
EXTT5=
EXTT6=
EXTT7=
EXTT8=
EXTT9=
EXTT10=
EXTT11=
EXTT12=
EXTT13=
EXTT14=
EXTT15=
EXTT16=
EXTT17=
EXTT18=
EXTT19=
PLAYORDER=
